<svg width="14" height="14" viewBox="0 0 14 14" fill="none" xmlns="http://www.w3.org/2000/svg">
<path d="M11.7795 8.91744C11.7464 8.99739 11.6903 9.06573 11.6184 9.11382C11.5465 9.16191 11.4619 9.18758 11.3753 9.1876H2.62534C2.53877 9.18767 2.45411 9.16205 2.3821 9.11398C2.31009 9.06591 2.25396 8.99756 2.22082 8.91757C2.18768 8.83759 2.17902 8.74957 2.19593 8.66465C2.21284 8.57974 2.25456 8.50176 2.31581 8.44057L6.69081 4.06557C6.73145 4.02489 6.7797 3.99262 6.83281 3.97061C6.88592 3.94859 6.94285 3.93726 7.00034 3.93726C7.05784 3.93726 7.11477 3.94859 7.16788 3.97061C7.22099 3.99262 7.26924 4.02489 7.30988 4.06557L11.6849 8.44057C11.746 8.50179 11.7877 8.57977 11.8045 8.66466C11.8214 8.74954 11.8126 8.83751 11.7795 8.91744Z" fill="url(#paint0_linear_912_334)"/>
<defs>
<linearGradient id="paint0_linear_912_334" x1="7.00019" y1="3.93726" x2="7.00019" y2="9.1876" gradientUnits="userSpaceOnUse">
<stop stop-color="white"/>
<stop offset="1" stop-color="#999999"/>
</linearGradient>
</defs>
</svg>
