<svg width="14" height="14" viewBox="0 0 14 14" fill="none" xmlns="http://www.w3.org/2000/svg">
<path d="M2.22076 5.08231C2.25386 5.00236 2.30992 4.93402 2.38185 4.88594C2.45379 4.83785 2.53837 4.81217 2.6249 4.81215L11.3749 4.81216C11.4615 4.81209 11.5461 4.83771 11.6181 4.88578C11.6902 4.93385 11.7463 5.0022 11.7794 5.08219C11.8126 5.16217 11.8212 5.25019 11.8043 5.3351C11.7874 5.42001 11.7457 5.498 11.6844 5.55919L7.30943 9.93419C7.2688 9.97486 7.22055 10.0071 7.16744 10.0292C7.11432 10.0512 7.05739 10.0625 6.9999 10.0625C6.94241 10.0625 6.88547 10.0512 6.83236 10.0292C6.77925 10.0071 6.731 9.97486 6.69037 9.93419L2.31537 5.55919C2.2542 5.49797 2.21257 5.41998 2.19573 5.3351C2.17889 5.25022 2.1876 5.16224 2.22076 5.08231Z" fill="url(#paint0_linear_938_1633)"/>
<defs>
<linearGradient id="paint0_linear_938_1633" x1="7.00005" y1="10.0625" x2="7.00005" y2="4.81216" gradientUnits="userSpaceOnUse">
<stop stop-color="white"/>
<stop offset="1" stop-color="#999999"/>
</linearGradient>
</defs>
</svg>
