<svg width="14" height="14" viewBox="0 0 14 14" fill="none" xmlns="http://www.w3.org/2000/svg">
<path d="M2.22052 5.08256C2.25361 5.00261 2.30967 4.93427 2.38161 4.88618C2.45355 4.83809 2.53813 4.81242 2.62466 4.8124L11.3747 4.8124C11.4612 4.81233 11.5459 4.83795 11.6179 4.88602C11.6899 4.93409 11.746 5.00244 11.7792 5.08243C11.8123 5.16241 11.821 5.25043 11.8041 5.33535C11.7872 5.42026 11.7454 5.49824 11.6842 5.55943L7.30919 9.93443C7.26855 9.97511 7.2203 10.0074 7.16719 10.0294C7.11408 10.0514 7.05715 10.0627 6.99966 10.0627C6.94216 10.0627 6.88523 10.0514 6.83212 10.0294C6.77901 10.0074 6.73076 9.97511 6.69012 9.93443L2.31512 5.55943C2.25396 5.49821 2.21232 5.42023 2.19548 5.33534C2.17864 5.25046 2.18735 5.16249 2.22052 5.08256Z" fill="black"/>
</svg>
