<svg width="55" height="28" viewBox="0 0 55 28" fill="none" xmlns="http://www.w3.org/2000/svg">
<path d="M0.414 23.6619L0.108 18.9819H0.144C1.422 22.2219 3.258 24.0399 5.472 24.0939C6.678 24.1299 7.83 23.4639 7.83 22.1139C7.83 20.4939 6.03 19.6299 4.158 18.6759C2.34 17.7579 0.522 16.8039 0.522 14.6799C0.522 12.6099 2.412 11.5119 4.662 11.5119C6.444 11.5119 7.542 11.8359 8.316 12.1959L8.712 15.8319H8.676C7.524 13.4919 5.724 11.7819 4.05 11.7819C2.952 11.7819 1.782 12.4479 1.818 13.6899C1.836 14.9139 3.006 15.5619 5.13 16.5879C7.596 17.7759 9.198 18.9099 9.198 20.9979C9.198 23.0139 7.506 24.3999 4.95 24.3999C2.844 24.3999 1.35 24.0399 0.414 23.6619ZM9.49598 13.0599V12.9879L12.214 11.6559V16.4439C12.79 15.6879 13.582 15.1119 14.662 15.1119C16.246 15.1119 16.858 15.9939 17.344 18.3879L17.974 21.4479C18.316 23.1939 18.838 23.8959 19.288 24.2559H16.462L15.346 18.4419C15.04 16.8399 14.716 15.9219 13.816 15.8679C13.096 15.8139 12.592 16.2819 12.214 16.6959V21.1059C12.214 22.8339 12.61 23.8779 13.06 24.2559H10.216L10.324 15.7599C10.342 14.1939 9.90998 13.3839 9.49598 13.0599ZM19.0936 21.2859C19.0936 19.2519 20.4616 17.7039 22.5856 16.7859C21.9916 17.2719 20.9836 18.4599 20.9836 20.1699C20.9836 21.8619 21.8296 23.1759 23.4316 23.1759C23.9896 23.1759 24.5836 22.9779 24.9976 22.5279C24.1696 20.0979 23.0896 16.9119 22.5856 16.2279C22.1716 15.6159 21.4336 15.5259 20.8216 15.6699L20.8036 15.6339C21.3076 15.3099 21.9736 15.1119 22.6036 15.1119C23.4316 15.1119 24.4396 15.4539 24.9616 16.7499C25.4476 17.9559 26.7436 21.5199 27.1216 22.5279C27.4636 23.4279 27.7876 23.9859 28.0936 24.2559H25.5916L25.0876 22.7439C24.4936 23.8239 23.6656 24.3999 22.3156 24.3999C20.4436 24.3999 19.0936 23.1039 19.0936 21.2859ZM27.8651 16.5159V16.4439L30.5831 15.1119V16.5699C30.9611 15.9219 31.9691 15.1119 33.2831 15.1119C35.1731 15.1119 37.0451 16.5879 37.0451 19.6299C37.0451 22.9599 34.9211 24.3999 33.2471 24.3999C31.9511 24.3999 30.9791 23.6439 30.5831 23.2479V24.3279C30.5831 25.7139 30.9791 26.8479 31.4291 27.2259H28.5851L28.6931 19.2159C28.7111 17.6499 28.2791 16.8399 27.8651 16.5159ZM30.5831 16.9479V22.9059C30.9431 23.2479 31.5551 23.7339 32.4731 23.7339C33.7511 23.7339 34.9931 22.5099 34.9931 19.8099C34.9751 17.1279 33.8411 15.7599 32.4011 15.7599C31.6631 15.7599 30.8891 16.3539 30.5831 16.9479ZM46.5879 19.8999H46.6239C46.5879 22.3119 44.6799 24.3999 42.1599 24.3999C39.5859 24.3999 37.5339 22.4199 37.5339 19.7919C37.5339 17.0559 39.6399 15.1119 42.1959 15.1119C44.1219 15.1119 45.7779 16.3359 45.7779 18.5499H39.4779C39.4599 18.7659 39.4419 18.9819 39.4419 19.1979C39.4419 21.3219 41.0799 22.7439 43.0599 22.7439C44.9499 22.7439 46.3179 21.5919 46.5879 19.8999ZM42.2499 15.3279C40.8459 15.3279 39.7659 16.5879 39.4959 18.3699H41.4399C43.2939 18.3699 43.9419 17.7219 43.9419 16.6959C43.9419 15.9219 43.2579 15.3279 42.2499 15.3279ZM54.0512 21.7539C54.0872 23.4819 52.4312 24.3999 50.6132 24.3999C49.1012 24.3999 47.9132 24.1299 47.1752 23.8779L46.9952 20.7999H47.0312C48.1292 23.0679 49.5332 24.1119 50.7212 24.1479C51.9092 24.1659 52.6652 23.6439 52.6112 22.7079C52.5752 21.8079 51.4592 21.3399 50.2172 20.7279C48.4172 19.8279 47.1212 19.1439 47.0672 17.5959C47.0312 15.8679 48.5792 15.0579 50.6492 15.1119C51.8192 15.1299 52.7192 15.4179 53.3312 15.7059L53.4752 18.4599H53.4392C52.7552 16.6959 51.6392 15.4719 50.1812 15.3639C49.2092 15.2919 48.4352 15.7779 48.4712 16.5699C48.5072 17.4879 49.3892 17.9919 51.0092 18.7299C52.7552 19.5579 53.9972 20.2959 54.0512 21.7539Z" fill="white"/>
<path fill-rule="evenodd" clip-rule="evenodd" d="M3.33925 27.1033C3.79929 27.5739 4.39274 27.7399 5.09831 27.6305C5.50149 27.568 5.92205 27.4511 6.30179 27.2374C8.01059 26.2757 10.4177 23.9929 13.5192 20.3637C14.6576 19.0518 15.829 17.7863 17.0295 16.5421C17.1225 16.4761 17.1612 16.3927 17.1495 16.3171C17.1338 16.2163 17.0504 16.1776 16.9244 16.1972C16.8236 16.2128 16.7306 16.2788 16.6629 16.3409C15.1891 17.6533 13.8065 19.0547 12.5403 20.5413L10.7745 22.4666C9.80255 23.5205 8.78974 24.4775 7.6818 25.3203C6.51389 26.2755 5.63625 26.7729 5.05667 26.8628C4.82988 26.898 4.59528 26.8827 4.37024 26.7628C3.97838 26.5655 3.72208 26.244 3.57615 25.8021C3.43021 25.3603 3.34249 24.961 3.27997 24.5578C3.24375 24.3243 3.21814 24.075 3.20276 23.8102C2.82633 23.7698 2.47777 23.7174 2.15652 23.6565C2.17384 23.8659 2.1973 24.0659 2.22688 24.2567L2.26986 24.5338C2.4418 25.6426 2.78407 26.5185 3.33925 27.1033ZM2.14258 21.9082C2.22833 20.3042 2.55883 18.337 3.14175 16.0121C3.54683 14.2978 4.02966 12.752 4.56504 11.3787C4.57061 11.365 4.57618 11.3512 4.58175 11.3375C4.93506 11.4103 5.29029 11.5528 5.64041 11.755C4.65902 14.2463 3.94316 16.9289 3.49721 19.8019C3.31763 20.9448 3.2119 21.9563 3.18966 22.835C2.82395 22.5852 2.47451 22.2755 2.14258 21.9082ZM5.91799 11.0723C6.64188 9.34643 7.49667 7.71501 8.48085 6.17824C9.25299 5.00051 10.0738 3.97005 10.9723 3.10818C11.8708 2.2463 12.5721 1.77629 13.0761 1.69814C13.3533 1.65515 13.6074 1.79637 13.8055 2.07531C13.9415 2.28647 14.0522 2.50154 14.0913 2.75352C14.1343 3.03071 14.1212 3.44562 14.0521 3.99824C13.933 4.89407 13.6878 5.80945 13.2663 6.75218C13.0169 7.30695 12.9165 7.65799 12.936 7.78398C12.9478 7.85957 12.9769 7.88087 13.0777 7.86524C13.2037 7.8457 13.3818 7.66324 13.6043 7.26747C13.8055 6.90081 14.0162 6.42945 14.2405 5.87858C14.4647 5.32771 14.6385 4.78466 14.8124 4.24161C14.9706 3.59776 15.0106 3.02384 14.9285 2.49467C14.8308 1.8647 14.5472 1.36679 14.0776 1.00093C13.7322 0.770635 13.356 0.67415 12.9528 0.736673C12.222 0.849997 11.2844 1.45988 10.1147 2.57024C8.02317 4.54286 6.23223 7.36312 4.71554 11.0117C5.15689 11.0134 5.55584 11.0351 5.91799 11.0723ZM17.3641 14.7097C17.5678 14.8588 17.8063 14.8992 18.0835 14.8562C18.3103 14.821 18.5293 14.7355 18.7617 14.5704C18.9942 14.4053 19.211 14.1395 19.4665 13.7902C19.722 13.4409 19.9232 13.0742 20.07 12.6902C20.2169 12.3061 20.3369 12.0811 20.4802 12.0073C20.5984 11.9373 20.767 11.8596 20.9608 11.7779C21.2701 11.6476 21.4961 11.5447 21.6474 11.4759C21.7804 11.4154 21.8557 11.3811 21.8792 11.3774C21.9044 11.3735 21.9336 11.3948 21.9336 11.3948C21.9414 11.4452 21.8892 11.6081 21.7771 11.8836C21.638 12.318 21.5959 12.7116 21.6427 13.014C21.7443 13.6692 22.0975 13.9499 22.6519 13.8639C23.5843 13.7193 24.2195 13.1563 24.5537 12.1497C24.6541 11.7987 24.7527 11.6028 24.8205 11.5406C24.8883 11.4785 24.96 11.4416 25.0356 11.4299C25.2372 11.3986 25.553 11.2722 25.954 11.0294C26.3338 10.8157 26.634 10.5885 26.8082 10.3808C26.9825 10.1732 27.0637 10.0316 27.0481 9.93076C27.0403 9.88036 26.986 9.86297 26.9104 9.8747C26.734 9.90205 26.426 10.0788 25.9532 10.3586C25.345 10.7626 24.9613 10.9511 24.7849 10.9784C24.6841 10.9941 24.6007 10.9554 24.5269 10.812C24.453 10.6686 24.3075 10.5622 24.0825 10.4423C23.8574 10.3223 23.6945 10.2702 23.5685 10.2897C23.4425 10.3093 23.3126 10.3036 23.1749 10.2475C23.1167 10.205 23.0372 10.1915 22.9616 10.2032C22.8608 10.2188 22.7174 10.2927 22.5527 10.3956C22.0548 10.6793 21.6751 10.893 21.4135 11.0368C21.152 11.1806 20.933 11.2661 20.7818 11.2896C20.7599 11.2962 20.7384 11.3029 20.7172 11.3094C20.5718 11.3541 20.4428 11.3937 20.3109 11.4142C20.3141 11.3783 20.3175 11.3431 20.3208 11.3089C20.3368 11.1441 20.3504 11.0033 20.3374 10.9198C20.2944 10.6426 20.1254 10.385 19.8809 10.139C19.6363 9.89312 19.3609 9.78101 19.1089 9.82008C18.7057 9.88261 18.3338 10.1467 17.9853 10.562C17.6116 10.9812 17.3331 11.5147 17.1167 12.116C17.0085 12.4166 16.968 12.6551 16.9489 12.8645C16.9298 13.0739 16.9671 13.481 17.0687 14.1362C17.1 14.3378 17.1195 14.4638 17.1525 14.5103C17.1894 14.582 17.2515 14.6498 17.3641 14.7097ZM18.6832 13.731C18.3947 14.0338 18.1583 14.1737 17.9567 14.2049C17.8055 14.2284 17.7221 14.1897 17.7026 14.0637L17.6791 13.9125C17.6283 13.5849 17.6414 13.17 17.7726 12.6852L17.9309 12.0413L18.1889 12.2078C18.3596 12.3103 18.5942 12.3255 18.947 12.2708C19.2998 12.2161 19.484 12.2392 19.4918 12.2896C19.4988 12.3348 19.4545 12.4502 19.3923 12.612C19.3851 12.6307 19.3777 12.6499 19.3701 12.6697L19.3701 12.6698C19.2715 12.8657 19.1729 13.0616 19.049 13.2614C18.9252 13.4612 18.7935 13.6107 18.6832 13.731ZM19.6887 11.5623C19.65 11.6457 19.6287 11.6748 19.6287 11.6748C19.6035 11.6787 19.5531 11.6865 19.4484 11.677C19.3746 11.6884 19.2988 11.6864 19.2026 11.6837C19.1673 11.6828 19.1294 11.6818 19.0878 11.6813C18.9366 11.7047 18.8319 11.6952 18.7233 11.6604C18.6186 11.6508 18.5391 11.6374 18.4809 11.5948C18.4227 11.5522 18.4149 11.5018 18.4071 11.4514C18.3836 11.3002 18.4358 11.1373 18.6139 10.9548C18.7669 10.7763 18.9528 10.6442 19.1796 10.6091C19.2843 10.6186 19.389 10.6282 19.4472 10.6708C19.4898 10.702 19.5211 10.7487 19.5606 10.808C19.5751 10.8297 19.5907 10.8531 19.6084 10.878C19.6161 10.899 19.6236 10.9192 19.631 10.9388C19.6664 11.0335 19.6966 11.1143 19.7096 11.1978C19.7369 11.3742 19.7313 11.5041 19.6887 11.5623ZM23.3854 12.7696C23.1143 13.0181 22.874 13.1327 22.6724 13.164C22.5212 13.1874 22.4126 13.1527 22.3891 13.0015C22.3696 12.8755 22.3887 12.6661 22.497 12.3654C22.58 12.0687 22.6921 11.7933 22.8546 11.51L23.1196 11.0561C23.4689 11.3115 23.6688 11.4354 23.7522 11.4741C23.8104 11.5166 23.8608 11.5088 23.9112 11.501C23.9616 11.4932 23.9946 11.5397 24.0024 11.5901C24.022 11.7161 23.9485 11.9081 23.8325 12.1583C23.7165 12.4086 23.5674 12.6123 23.3854 12.7696ZM28.1505 14.4047L28.3017 14.3812C28.6041 14.3343 28.8948 14.2118 29.1698 13.9885C29.8554 13.4177 30.475 12.7539 30.9995 11.9759C31.0343 11.8673 31.3962 11.3725 32.0562 10.4702L32.0562 10.4702C32.0538 10.4546 32.061 10.4375 32.071 10.4139C32.0772 10.3994 32.0844 10.3823 32.091 10.3616C32.1084 10.3072 32.1258 10.2529 32.118 10.2025C32.114 10.1773 32.0597 10.16 32.0093 10.1678C31.9086 10.1834 31.866 10.2416 31.8486 10.2959L29.8429 12.6713C29.63 12.9624 29.4093 13.2031 29.1846 13.4185C28.9387 13.6631 28.6481 13.7856 28.2953 13.8403C28.0394 13.8542 27.8743 13.6217 27.7961 13.1178C27.7493 12.8154 27.7371 12.4044 27.785 11.8809C27.7987 11.6689 27.8395 11.4948 27.8699 11.3645C27.8732 11.3506 27.8763 11.3372 27.8793 11.3243C27.9141 11.2157 27.9701 11.078 28.0766 10.9325L28.0766 10.9324C28.1618 10.816 28.3108 10.6123 28.5276 10.3464C29.4453 9.27516 30.3026 7.981 31.1538 6.48134C32.009 5.00688 32.6239 3.64709 33.0276 2.42327C33.2709 1.66299 33.3575 1.05606 33.291 0.627684C33.1955 0.178013 32.98 -0.0466204 32.6272 0.00808746C32.1737 0.0784261 31.5927 0.658804 30.8806 1.72402C30.1723 2.81444 29.4914 4.08125 28.8456 5.57484C27.9757 7.61931 27.3538 9.5995 27.0382 11.558C26.9477 12.1397 26.9425 12.605 27.005 13.0082C27.1457 13.9154 27.5301 14.3976 28.1505 14.4047ZM28.4086 9.74558L28.1105 10.1531C28.0949 10.0523 28.2223 9.54224 28.51 8.56865C28.7725 7.59897 29.1957 6.50114 29.7719 5.22476C30.4564 3.64775 31.1664 2.40223 31.8477 1.47083C32.1844 0.979924 32.4265 0.710149 32.5524 0.690611C32.5776 0.686703 32.6068 0.707994 32.6107 0.733193L32.472 1.50304C32.2947 2.35629 31.9644 3.38809 31.4733 4.54804C30.961 5.7371 30.4252 6.77496 29.8408 7.66554L29.086 8.78897C28.8383 9.18865 28.6041 9.50882 28.4086 9.74558Z" fill="white"/>
<path fill-rule="evenodd" clip-rule="evenodd" d="M3.33925 27.1033C3.79929 27.5739 4.39274 27.7399 5.09831 27.6305C5.50149 27.568 5.92205 27.4511 6.30179 27.2374C8.01059 26.2757 10.4177 23.9929 13.5192 20.3637C14.6576 19.0518 15.829 17.7863 17.0295 16.5421C17.1225 16.4761 17.1612 16.3927 17.1495 16.3171C17.1338 16.2163 17.0504 16.1776 16.9244 16.1972C16.8236 16.2128 16.7306 16.2788 16.6629 16.3409C15.1891 17.6533 13.8065 19.0547 12.5403 20.5413L10.7745 22.4666C9.80255 23.5205 8.78974 24.4775 7.6818 25.3203C6.51389 26.2755 5.63625 26.7729 5.05667 26.8628C4.82988 26.898 4.59528 26.8827 4.37024 26.7628C3.97838 26.5655 3.72208 26.244 3.57615 25.8021C3.43021 25.3603 3.34249 24.961 3.27997 24.5578C3.24375 24.3243 3.21814 24.075 3.20276 23.8102C2.82633 23.7698 2.47777 23.7174 2.15652 23.6565C2.17384 23.8659 2.1973 24.0659 2.22688 24.2567L2.26986 24.5338C2.4418 25.6426 2.78407 26.5185 3.33925 27.1033ZM2.14258 21.9082C2.22833 20.3042 2.55883 18.337 3.14175 16.0121C3.54683 14.2978 4.02966 12.752 4.56504 11.3787C4.57061 11.365 4.57618 11.3512 4.58175 11.3375C4.93506 11.4103 5.29029 11.5528 5.64041 11.755C4.65902 14.2463 3.94316 16.9289 3.49721 19.8019C3.31763 20.9448 3.2119 21.9563 3.18966 22.835C2.82395 22.5852 2.47451 22.2755 2.14258 21.9082ZM5.91799 11.0723C6.64188 9.34643 7.49667 7.71501 8.48085 6.17824C9.25299 5.00051 10.0738 3.97005 10.9723 3.10818C11.8708 2.2463 12.5721 1.77629 13.0761 1.69814C13.3533 1.65515 13.6074 1.79637 13.8055 2.07531C13.9415 2.28647 14.0522 2.50154 14.0913 2.75352C14.1343 3.03071 14.1212 3.44562 14.0521 3.99824C13.933 4.89407 13.6878 5.80945 13.2663 6.75218C13.0169 7.30695 12.9165 7.65799 12.936 7.78398C12.9478 7.85957 12.9769 7.88087 13.0777 7.86524C13.2037 7.8457 13.3818 7.66324 13.6043 7.26747C13.8055 6.90081 14.0162 6.42945 14.2405 5.87858C14.4647 5.32771 14.6385 4.78466 14.8124 4.24161C14.9706 3.59776 15.0106 3.02384 14.9285 2.49467C14.8308 1.8647 14.5472 1.36679 14.0776 1.00093C13.7322 0.770635 13.356 0.67415 12.9528 0.736673C12.222 0.849997 11.2844 1.45988 10.1147 2.57024C8.02317 4.54286 6.23223 7.36312 4.71554 11.0117C5.15689 11.0134 5.55584 11.0351 5.91799 11.0723ZM17.3641 14.7097C17.5678 14.8588 17.8063 14.8992 18.0835 14.8562C18.3103 14.821 18.5293 14.7355 18.7617 14.5704C18.9942 14.4053 19.211 14.1395 19.4665 13.7902C19.722 13.4409 19.9232 13.0742 20.07 12.6902C20.2169 12.3061 20.3369 12.0811 20.4802 12.0073C20.5984 11.9373 20.767 11.8596 20.9608 11.7779C21.2701 11.6476 21.4961 11.5447 21.6474 11.4759C21.7804 11.4154 21.8557 11.3811 21.8792 11.3774C21.9044 11.3735 21.9336 11.3948 21.9336 11.3948C21.9414 11.4452 21.8892 11.6081 21.7771 11.8836C21.638 12.318 21.5959 12.7116 21.6427 13.014C21.7443 13.6692 22.0975 13.9499 22.6519 13.8639C23.5843 13.7193 24.2195 13.1563 24.5537 12.1497C24.6541 11.7987 24.7527 11.6028 24.8205 11.5406C24.8883 11.4785 24.96 11.4416 25.0356 11.4299C25.2372 11.3986 25.553 11.2722 25.954 11.0294C26.3338 10.8157 26.634 10.5885 26.8082 10.3808C26.9825 10.1732 27.0637 10.0316 27.0481 9.93076C27.0403 9.88036 26.986 9.86297 26.9104 9.8747C26.734 9.90205 26.426 10.0788 25.9532 10.3586C25.345 10.7626 24.9613 10.9511 24.7849 10.9784C24.6841 10.9941 24.6007 10.9554 24.5269 10.812C24.453 10.6686 24.3075 10.5622 24.0825 10.4423C23.8574 10.3223 23.6945 10.2702 23.5685 10.2897C23.4425 10.3093 23.3126 10.3036 23.1749 10.2475C23.1167 10.205 23.0372 10.1915 22.9616 10.2032C22.8608 10.2188 22.7174 10.2927 22.5527 10.3956C22.0548 10.6793 21.6751 10.893 21.4135 11.0368C21.152 11.1806 20.933 11.2661 20.7818 11.2896C20.7599 11.2962 20.7384 11.3029 20.7172 11.3094C20.5718 11.3541 20.4428 11.3937 20.3109 11.4142C20.3141 11.3783 20.3175 11.3431 20.3208 11.3089C20.3368 11.1441 20.3504 11.0033 20.3374 10.9198C20.2944 10.6426 20.1254 10.385 19.8809 10.139C19.6363 9.89312 19.3609 9.78101 19.1089 9.82008C18.7057 9.88261 18.3338 10.1467 17.9853 10.562C17.6116 10.9812 17.3331 11.5147 17.1167 12.116C17.0085 12.4166 16.968 12.6551 16.9489 12.8645C16.9298 13.0739 16.9671 13.481 17.0687 14.1362C17.1 14.3378 17.1195 14.4638 17.1525 14.5103C17.1894 14.582 17.2515 14.6498 17.3641 14.7097ZM18.6832 13.731C18.3947 14.0338 18.1583 14.1737 17.9567 14.2049C17.8055 14.2284 17.7221 14.1897 17.7026 14.0637L17.6791 13.9125C17.6283 13.5849 17.6414 13.17 17.7726 12.6852L17.9309 12.0413L18.1889 12.2078C18.3596 12.3103 18.5942 12.3255 18.947 12.2708C19.2998 12.2161 19.484 12.2392 19.4918 12.2896C19.4988 12.3348 19.4545 12.4502 19.3923 12.612C19.3851 12.6307 19.3777 12.6499 19.3701 12.6697L19.3701 12.6698C19.2715 12.8657 19.1729 13.0616 19.049 13.2614C18.9252 13.4612 18.7935 13.6107 18.6832 13.731ZM19.6887 11.5623C19.65 11.6457 19.6287 11.6748 19.6287 11.6748C19.6035 11.6787 19.5531 11.6865 19.4484 11.677C19.3746 11.6884 19.2988 11.6864 19.2026 11.6837C19.1673 11.6828 19.1294 11.6818 19.0878 11.6813C18.9366 11.7047 18.8319 11.6952 18.7233 11.6604C18.6186 11.6508 18.5391 11.6374 18.4809 11.5948C18.4227 11.5522 18.4149 11.5018 18.4071 11.4514C18.3836 11.3002 18.4358 11.1373 18.6139 10.9548C18.7669 10.7763 18.9528 10.6442 19.1796 10.6091C19.2843 10.6186 19.389 10.6282 19.4472 10.6708C19.4898 10.702 19.5211 10.7487 19.5606 10.808C19.5751 10.8297 19.5907 10.8531 19.6084 10.878C19.6161 10.899 19.6236 10.9192 19.631 10.9388C19.6664 11.0335 19.6966 11.1143 19.7096 11.1978C19.7369 11.3742 19.7313 11.5041 19.6887 11.5623ZM23.3854 12.7696C23.1143 13.0181 22.874 13.1327 22.6724 13.164C22.5212 13.1874 22.4126 13.1527 22.3891 13.0015C22.3696 12.8755 22.3887 12.6661 22.497 12.3654C22.58 12.0687 22.6921 11.7933 22.8546 11.51L23.1196 11.0561C23.4689 11.3115 23.6688 11.4354 23.7522 11.4741C23.8104 11.5166 23.8608 11.5088 23.9112 11.501C23.9616 11.4932 23.9946 11.5397 24.0024 11.5901C24.022 11.7161 23.9485 11.9081 23.8325 12.1583C23.7165 12.4086 23.5674 12.6123 23.3854 12.7696ZM28.1505 14.4047L28.3017 14.3812C28.6041 14.3343 28.8948 14.2118 29.1698 13.9885C29.8554 13.4177 30.475 12.7539 30.9995 11.9759C31.0343 11.8673 31.3962 11.3725 32.0562 10.4702L32.0562 10.4702C32.0538 10.4546 32.061 10.4375 32.071 10.4139C32.0772 10.3994 32.0844 10.3823 32.091 10.3616C32.1084 10.3072 32.1258 10.2529 32.118 10.2025C32.114 10.1773 32.0597 10.16 32.0093 10.1678C31.9086 10.1834 31.866 10.2416 31.8486 10.2959L29.8429 12.6713C29.63 12.9624 29.4093 13.2031 29.1846 13.4185C28.9387 13.6631 28.6481 13.7856 28.2953 13.8403C28.0394 13.8542 27.8743 13.6217 27.7961 13.1178C27.7493 12.8154 27.7371 12.4044 27.785 11.8809C27.7987 11.6689 27.8395 11.4948 27.8699 11.3645C27.8732 11.3506 27.8763 11.3372 27.8793 11.3243C27.9141 11.2157 27.9701 11.078 28.0766 10.9325L28.0766 10.9324C28.1618 10.816 28.3108 10.6123 28.5276 10.3464C29.4453 9.27516 30.3026 7.981 31.1538 6.48134C32.009 5.00688 32.6239 3.64709 33.0276 2.42327C33.2709 1.66299 33.3575 1.05606 33.291 0.627684C33.1955 0.178013 32.98 -0.0466204 32.6272 0.00808746C32.1737 0.0784261 31.5927 0.658804 30.8806 1.72402C30.1723 2.81444 29.4914 4.08125 28.8456 5.57484C27.9757 7.61931 27.3538 9.5995 27.0382 11.558C26.9477 12.1397 26.9425 12.605 27.005 13.0082C27.1457 13.9154 27.5301 14.3976 28.1505 14.4047ZM28.4086 9.74558L28.1105 10.1531C28.0949 10.0523 28.2223 9.54224 28.51 8.56865C28.7725 7.59897 29.1957 6.50114 29.7719 5.22476C30.4564 3.64775 31.1664 2.40223 31.8477 1.47083C32.1844 0.979924 32.4265 0.710149 32.5524 0.690611C32.5776 0.686703 32.6068 0.707994 32.6107 0.733193L32.472 1.50304C32.2947 2.35629 31.9644 3.38809 31.4733 4.54804C30.961 5.7371 30.4252 6.77496 29.8408 7.66554L29.086 8.78897C28.8383 9.18865 28.6041 9.50882 28.4086 9.74558Z" fill="url(#paint0_linear_938_1672)"/>
<defs>
<linearGradient id="paint0_linear_938_1672" x1="33.488" y1="-2.55154" x2="3.84618" y2="28.9884" gradientUnits="userSpaceOnUse">
<stop stop-color="#FF0000"/>
<stop offset="0.25" stop-color="#FFC700"/>
<stop offset="0.5" stop-color="#45F7D7"/>
<stop offset="0.75" stop-color="#4643FF"/>
<stop offset="1" stop-color="#FF00D6"/>
</linearGradient>
</defs>
</svg>
