<svg width="18" height="18" viewBox="0 0 18 18" fill="none" xmlns="http://www.w3.org/2000/svg">
<g filter="url(#filter0_d_938_1651)">
<path fill-rule="evenodd" clip-rule="evenodd" d="M1.21301 0.213013C1.49703 -0.0710044 1.95751 -0.0710044 2.24153 0.213013L7.09002 5.0615C7.37403 5.34552 7.37403 5.806 7.09002 6.09002C6.806 6.37403 6.34552 6.37403 6.0615 6.09002L1.21301 1.24153C0.928996 0.957515 0.928996 0.497031 1.21301 0.213013ZM14.5169 1.45455H12.2323C11.8307 1.45455 11.5051 1.12893 11.5051 0.727273C11.5051 0.325611 11.8307 1.08372e-08 12.2323 1.08372e-08H16.2727C16.6744 1.08372e-08 17 0.325611 17 0.727273V4.76768C17 5.16934 16.6744 5.49495 16.2727 5.49495C15.8711 5.49495 15.5455 5.16934 15.5455 4.76768V2.48307L2.24153 15.787C1.95751 16.071 1.49703 16.071 1.21301 15.787C0.928996 15.503 0.928996 15.0425 1.21301 14.7585L14.5169 1.45455ZM10.91 9.90998C11.194 9.62597 11.6545 9.62597 11.9385 9.90998L15.5455 13.5169V11.2323C15.5455 10.8307 15.8711 10.5051 16.2727 10.5051C16.6744 10.5051 17 10.8307 17 11.2323V15.2727C17 15.6744 16.6744 16 16.2727 16H12.2323C11.8307 16 11.5051 15.6744 11.5051 15.2727C11.5051 14.8711 11.8307 14.5455 12.2323 14.5455H14.5169L10.91 10.9385C10.626 10.6545 10.626 10.194 10.91 9.90998Z" fill="url(#paint0_linear_938_1651)"/>
</g>
<defs>
<filter id="filter0_d_938_1651" x="0" y="0" width="18" height="18" filterUnits="userSpaceOnUse" color-interpolation-filters="sRGB">
<feFlood flood-opacity="0" result="BackgroundImageFix"/>
<feColorMatrix in="SourceAlpha" type="matrix" values="0 0 0 0 0 0 0 0 0 0 0 0 0 0 0 0 0 0 127 0" result="hardAlpha"/>
<feOffset dy="1"/>
<feGaussianBlur stdDeviation="0.5"/>
<feColorMatrix type="matrix" values="0 0 0 0 0 0 0 0 0 0 0 0 0 0 0 0 0 0 0.25 0"/>
<feBlend mode="normal" in2="BackgroundImageFix" result="effect1_dropShadow_938_1651"/>
<feBlend mode="normal" in="SourceGraphic" in2="effect1_dropShadow_938_1651" result="shape"/>
</filter>
<linearGradient id="paint0_linear_938_1651" x1="9" y1="0" x2="9" y2="16" gradientUnits="userSpaceOnUse">
<stop stop-color="white"/>
<stop offset="1" stop-color="#999999"/>
</linearGradient>
</defs>
</svg>
